<mxfile host="Electron" agent="Mozilla/5.0 (Windows NT 10.0; Win64; x64) AppleWebKit/537.36 (KHTML, like Gecko) draw.io/26.2.2 Chrome/134.0.6998.178 Electron/35.1.2 Safari/537.36" version="26.2.2">
  <diagram name="Page-1" id="YZj3xL2Lo8IQwoz_XZKk">
    <mxGraphModel dx="471" dy="833" grid="1" gridSize="10" guides="1" tooltips="1" connect="1" arrows="1" fold="1" page="1" pageScale="1" pageWidth="850" pageHeight="1100" math="0" shadow="0" adaptiveColors="none">
      <root>
        <mxCell id="0" />
        <mxCell id="1" parent="0" />
        <mxCell id="5_2mnmRBDeJUn5YOXcOV-1" value="User&lt;div&gt;&lt;br&gt;&lt;/div&gt;" style="shape=umlActor;verticalLabelPosition=bottom;verticalAlign=top;html=1;outlineConnect=0;" vertex="1" parent="1">
          <mxGeometry x="50" y="290" width="30" height="60" as="geometry" />
        </mxCell>
        <mxCell id="5_2mnmRBDeJUn5YOXcOV-2" value="Login Page" style="shape=umlBoundary;whiteSpace=wrap;html=1;" vertex="1" parent="1">
          <mxGeometry x="190" y="60" width="100" height="80" as="geometry" />
        </mxCell>
        <mxCell id="5_2mnmRBDeJUn5YOXcOV-3" value="" style="endArrow=classic;html=1;rounded=0;exitX=1;exitY=0.3333333333333333;exitDx=0;exitDy=0;exitPerimeter=0;entryX=0;entryY=0.485;entryDx=0;entryDy=0;entryPerimeter=0;" edge="1" parent="1" source="5_2mnmRBDeJUn5YOXcOV-1" target="5_2mnmRBDeJUn5YOXcOV-2">
          <mxGeometry width="50" height="50" relative="1" as="geometry">
            <mxPoint x="90" y="290" as="sourcePoint" />
            <mxPoint x="140" y="240" as="targetPoint" />
          </mxGeometry>
        </mxCell>
        <mxCell id="5_2mnmRBDeJUn5YOXcOV-6" value="Eισαγωγή Ονόματος,Εmail και Κωδικού" style="edgeLabel;html=1;align=center;verticalAlign=middle;resizable=0;points=[];" vertex="1" connectable="0" parent="5_2mnmRBDeJUn5YOXcOV-3">
          <mxGeometry x="0.0421" relative="1" as="geometry">
            <mxPoint as="offset" />
          </mxGeometry>
        </mxCell>
        <mxCell id="5_2mnmRBDeJUn5YOXcOV-4" value="Σελίδα &quot;Personal Info&quot;" style="shape=umlBoundary;whiteSpace=wrap;html=1;" vertex="1" parent="1">
          <mxGeometry x="290" y="280" width="100" height="80" as="geometry" />
        </mxCell>
        <mxCell id="5_2mnmRBDeJUn5YOXcOV-5" value="" style="endArrow=classic;html=1;rounded=0;exitX=0.5;exitY=0.5;exitDx=0;exitDy=0;exitPerimeter=0;entryX=0.008;entryY=0.521;entryDx=0;entryDy=0;entryPerimeter=0;" edge="1" parent="1" source="5_2mnmRBDeJUn5YOXcOV-1" target="5_2mnmRBDeJUn5YOXcOV-4">
          <mxGeometry width="50" height="50" relative="1" as="geometry">
            <mxPoint x="140" y="390" as="sourcePoint" />
            <mxPoint x="190" y="340" as="targetPoint" />
          </mxGeometry>
        </mxCell>
        <mxCell id="5_2mnmRBDeJUn5YOXcOV-28" value="Εισαγωγή Στεοιχείων" style="edgeLabel;html=1;align=center;verticalAlign=middle;resizable=0;points=[];" vertex="1" connectable="0" parent="5_2mnmRBDeJUn5YOXcOV-5">
          <mxGeometry x="-0.1607" y="-1" relative="1" as="geometry">
            <mxPoint x="-1" as="offset" />
          </mxGeometry>
        </mxCell>
        <mxCell id="5_2mnmRBDeJUn5YOXcOV-7" value="Ιs UserName unique?" style="ellipse;shape=umlControl;whiteSpace=wrap;html=1;" vertex="1" parent="1">
          <mxGeometry x="570" y="30" width="70" height="80" as="geometry" />
        </mxCell>
        <mxCell id="5_2mnmRBDeJUn5YOXcOV-8" value="" style="endArrow=classic;html=1;rounded=0;exitX=1.025;exitY=0.521;exitDx=0;exitDy=0;exitPerimeter=0;entryX=0.016;entryY=0.55;entryDx=0;entryDy=0;entryPerimeter=0;" edge="1" parent="1" source="5_2mnmRBDeJUn5YOXcOV-2" target="5_2mnmRBDeJUn5YOXcOV-7">
          <mxGeometry width="50" height="50" relative="1" as="geometry">
            <mxPoint x="260" y="420" as="sourcePoint" />
            <mxPoint x="310" y="370" as="targetPoint" />
          </mxGeometry>
        </mxCell>
        <mxCell id="5_2mnmRBDeJUn5YOXcOV-9" value="" style="endArrow=classic;html=1;rounded=0;exitX=0.123;exitY=0.832;exitDx=0;exitDy=0;exitPerimeter=0;" edge="1" parent="1" source="5_2mnmRBDeJUn5YOXcOV-7" target="5_2mnmRBDeJUn5YOXcOV-10">
          <mxGeometry width="50" height="50" relative="1" as="geometry">
            <mxPoint x="500" y="100" as="sourcePoint" />
            <mxPoint x="570" y="101" as="targetPoint" />
          </mxGeometry>
        </mxCell>
        <mxCell id="5_2mnmRBDeJUn5YOXcOV-12" value="Νο" style="edgeLabel;html=1;align=center;verticalAlign=middle;resizable=0;points=[];" vertex="1" connectable="0" parent="5_2mnmRBDeJUn5YOXcOV-9">
          <mxGeometry x="-0.2069" y="1" relative="1" as="geometry">
            <mxPoint x="-1" as="offset" />
          </mxGeometry>
        </mxCell>
        <mxCell id="5_2mnmRBDeJUn5YOXcOV-10" value="Εμφάνιση Μυνήματος" style="ellipse;shape=umlControl;whiteSpace=wrap;html=1;" vertex="1" parent="1">
          <mxGeometry x="420" y="140" width="70" height="80" as="geometry" />
        </mxCell>
        <mxCell id="5_2mnmRBDeJUn5YOXcOV-11" value="&quot;Παρακαλώ επιλέξτε άλλο όνομα&quot;" style="endArrow=classic;html=1;rounded=0;entryX=0.827;entryY=0.938;entryDx=0;entryDy=0;entryPerimeter=0;exitX=-0.018;exitY=0.68;exitDx=0;exitDy=0;exitPerimeter=0;" edge="1" parent="1" source="5_2mnmRBDeJUn5YOXcOV-10" target="5_2mnmRBDeJUn5YOXcOV-2">
          <mxGeometry x="0.3248" y="5" width="50" height="50" relative="1" as="geometry">
            <mxPoint x="560" y="170" as="sourcePoint" />
            <mxPoint x="470" y="210" as="targetPoint" />
            <Array as="points" />
            <mxPoint as="offset" />
          </mxGeometry>
        </mxCell>
        <mxCell id="5_2mnmRBDeJUn5YOXcOV-13" value="" style="endArrow=classic;html=1;rounded=0;exitX=0.532;exitY=1.031;exitDx=0;exitDy=0;exitPerimeter=0;entryX=0.804;entryY=0.222;entryDx=0;entryDy=0;entryPerimeter=0;" edge="1" parent="1" source="5_2mnmRBDeJUn5YOXcOV-7" target="5_2mnmRBDeJUn5YOXcOV-24">
          <mxGeometry width="50" height="50" relative="1" as="geometry">
            <mxPoint x="630" y="119.99999999999991" as="sourcePoint" />
            <mxPoint x="657.85" y="278.28" as="targetPoint" />
          </mxGeometry>
        </mxCell>
        <mxCell id="5_2mnmRBDeJUn5YOXcOV-14" value="Yes" style="edgeLabel;html=1;align=center;verticalAlign=middle;resizable=0;points=[];" vertex="1" connectable="0" parent="5_2mnmRBDeJUn5YOXcOV-13">
          <mxGeometry x="-0.2408" y="2" relative="1" as="geometry">
            <mxPoint x="-23" y="31" as="offset" />
          </mxGeometry>
        </mxCell>
        <mxCell id="5_2mnmRBDeJUn5YOXcOV-15" value="Δημιουργία Λογαριασμού" style="ellipse;shape=umlControl;whiteSpace=wrap;html=1;" vertex="1" parent="1">
          <mxGeometry x="560" y="370" width="70" height="80" as="geometry" />
        </mxCell>
        <mxCell id="5_2mnmRBDeJUn5YOXcOV-16" value="" style="endArrow=classic;html=1;rounded=0;exitX=0.971;exitY=0.546;exitDx=0;exitDy=0;exitPerimeter=0;" edge="1" parent="1" source="5_2mnmRBDeJUn5YOXcOV-15">
          <mxGeometry width="50" height="50" relative="1" as="geometry">
            <mxPoint x="640" y="420" as="sourcePoint" />
            <mxPoint x="760" y="414" as="targetPoint" />
          </mxGeometry>
        </mxCell>
        <mxCell id="5_2mnmRBDeJUn5YOXcOV-17" value="Λογαριασμός" style="ellipse;shape=umlEntity;whiteSpace=wrap;html=1;" vertex="1" parent="1">
          <mxGeometry x="760" y="370" width="80" height="80" as="geometry" />
        </mxCell>
        <mxCell id="5_2mnmRBDeJUn5YOXcOV-19" value="Αποθηκ. Λογαρ. Στην ΒΔ" style="ellipse;shape=umlControl;whiteSpace=wrap;html=1;" vertex="1" parent="1">
          <mxGeometry x="561" y="530" width="70" height="80" as="geometry" />
        </mxCell>
        <mxCell id="5_2mnmRBDeJUn5YOXcOV-20" value="" style="endArrow=classic;html=1;rounded=0;exitX=0.561;exitY=1.046;exitDx=0;exitDy=0;exitPerimeter=0;entryX=0.567;entryY=0.116;entryDx=0;entryDy=0;entryPerimeter=0;" edge="1" parent="1" source="5_2mnmRBDeJUn5YOXcOV-15" target="5_2mnmRBDeJUn5YOXcOV-19">
          <mxGeometry width="50" height="50" relative="1" as="geometry">
            <mxPoint x="650" y="500" as="sourcePoint" />
            <mxPoint x="700" y="450" as="targetPoint" />
          </mxGeometry>
        </mxCell>
        <mxCell id="5_2mnmRBDeJUn5YOXcOV-21" value="ΒΔ" style="ellipse;shape=umlEntity;whiteSpace=wrap;html=1;" vertex="1" parent="1">
          <mxGeometry x="760" y="540" width="80" height="80" as="geometry" />
        </mxCell>
        <mxCell id="5_2mnmRBDeJUn5YOXcOV-22" value="" style="endArrow=classic;html=1;rounded=0;exitX=1.031;exitY=0.616;exitDx=0;exitDy=0;exitPerimeter=0;entryX=0;entryY=0.5;entryDx=0;entryDy=0;" edge="1" parent="1" source="5_2mnmRBDeJUn5YOXcOV-19" target="5_2mnmRBDeJUn5YOXcOV-21">
          <mxGeometry width="50" height="50" relative="1" as="geometry">
            <mxPoint x="660" y="680" as="sourcePoint" />
            <mxPoint x="710" y="630" as="targetPoint" />
          </mxGeometry>
        </mxCell>
        <mxCell id="5_2mnmRBDeJUn5YOXcOV-24" value="Εμφάνιση Σελίδας &quot;Personal Info&quot;" style="ellipse;shape=umlControl;whiteSpace=wrap;html=1;" vertex="1" parent="1">
          <mxGeometry x="552" y="250" width="79" height="90" as="geometry" />
        </mxCell>
        <mxCell id="5_2mnmRBDeJUn5YOXcOV-25" value="" style="endArrow=classic;html=1;rounded=0;exitX=-0.014;exitY=0.75;exitDx=0;exitDy=0;exitPerimeter=0;entryX=0.991;entryY=0.511;entryDx=0;entryDy=0;entryPerimeter=0;" edge="1" parent="1" source="5_2mnmRBDeJUn5YOXcOV-24" target="5_2mnmRBDeJUn5YOXcOV-4">
          <mxGeometry width="50" height="50" relative="1" as="geometry">
            <mxPoint x="260" y="540" as="sourcePoint" />
            <mxPoint x="310" y="490" as="targetPoint" />
          </mxGeometry>
        </mxCell>
        <mxCell id="5_2mnmRBDeJUn5YOXcOV-26" value="" style="endArrow=classic;html=1;rounded=0;entryX=0.497;entryY=0.137;entryDx=0;entryDy=0;entryPerimeter=0;exitX=0.648;exitY=1.01;exitDx=0;exitDy=0;exitPerimeter=0;" edge="1" parent="1" source="5_2mnmRBDeJUn5YOXcOV-4" target="5_2mnmRBDeJUn5YOXcOV-29">
          <mxGeometry width="50" height="50" relative="1" as="geometry">
            <mxPoint x="360" y="370" as="sourcePoint" />
            <mxPoint x="640" y="328.7200000000001" as="targetPoint" />
          </mxGeometry>
        </mxCell>
        <mxCell id="5_2mnmRBDeJUn5YOXcOV-29" value="Αll fields Ok?" style="ellipse;shape=umlControl;whiteSpace=wrap;html=1;" vertex="1" parent="1">
          <mxGeometry x="320" y="520" width="70" height="80" as="geometry" />
        </mxCell>
        <mxCell id="5_2mnmRBDeJUn5YOXcOV-30" value="" style="endArrow=classic;html=1;rounded=0;exitX=0.971;exitY=0.322;exitDx=0;exitDy=0;exitPerimeter=0;entryX=0.013;entryY=0.789;entryDx=0;entryDy=0;entryPerimeter=0;" edge="1" parent="1" source="5_2mnmRBDeJUn5YOXcOV-29" target="5_2mnmRBDeJUn5YOXcOV-15">
          <mxGeometry width="50" height="50" relative="1" as="geometry">
            <mxPoint x="660" y="350" as="sourcePoint" />
            <mxPoint x="710" y="300" as="targetPoint" />
            <Array as="points" />
          </mxGeometry>
        </mxCell>
        <mxCell id="5_2mnmRBDeJUn5YOXcOV-31" value="Yes" style="edgeLabel;html=1;align=center;verticalAlign=middle;resizable=0;points=[];" vertex="1" connectable="0" parent="5_2mnmRBDeJUn5YOXcOV-30">
          <mxGeometry x="-0.1359" y="2" relative="1" as="geometry">
            <mxPoint as="offset" />
          </mxGeometry>
        </mxCell>
        <mxCell id="5_2mnmRBDeJUn5YOXcOV-33" value="" style="endArrow=classic;html=1;rounded=0;exitX=0;exitY=0.5;exitDx=0;exitDy=0;exitPerimeter=0;" edge="1" parent="1" source="5_2mnmRBDeJUn5YOXcOV-29" target="5_2mnmRBDeJUn5YOXcOV-35">
          <mxGeometry width="50" height="50" relative="1" as="geometry">
            <mxPoint x="180" y="530" as="sourcePoint" />
            <mxPoint x="190" y="510" as="targetPoint" />
          </mxGeometry>
        </mxCell>
        <mxCell id="5_2mnmRBDeJUn5YOXcOV-34" value="No" style="edgeLabel;html=1;align=center;verticalAlign=middle;resizable=0;points=[];" vertex="1" connectable="0" parent="5_2mnmRBDeJUn5YOXcOV-33">
          <mxGeometry x="-0.1057" y="-3" relative="1" as="geometry">
            <mxPoint x="-1" as="offset" />
          </mxGeometry>
        </mxCell>
        <mxCell id="5_2mnmRBDeJUn5YOXcOV-35" value="Eφγάνιση Μυνήματος" style="ellipse;shape=umlControl;whiteSpace=wrap;html=1;" vertex="1" parent="1">
          <mxGeometry x="120" y="430" width="80" height="80" as="geometry" />
        </mxCell>
        <mxCell id="5_2mnmRBDeJUn5YOXcOV-36" value="" style="endArrow=classic;html=1;rounded=0;exitX=0.881;exitY=0.216;exitDx=0;exitDy=0;exitPerimeter=0;entryX=0.338;entryY=0.826;entryDx=0;entryDy=0;entryPerimeter=0;" edge="1" parent="1" source="5_2mnmRBDeJUn5YOXcOV-35" target="5_2mnmRBDeJUn5YOXcOV-4">
          <mxGeometry width="50" height="50" relative="1" as="geometry">
            <mxPoint x="200" y="440" as="sourcePoint" />
            <mxPoint x="250" y="390" as="targetPoint" />
          </mxGeometry>
        </mxCell>
      </root>
    </mxGraphModel>
  </diagram>
</mxfile>
